<svg xmlns="http://www.w3.org/2000/svg" viewBox="0 0 1002.07 1002.07"><defs><style>.a{fill:#f7931e;}.b,.c{fill:none;stroke:#000;stroke-miterlimit:10;stroke-width:28px;}.c{stroke-dasharray:20.48 20.48;}</style></defs><rect class="a" x="546.93" y="172.99" width="738.14" height="738.14" rx="50.47" transform="translate(-529.97 765.45) rotate(-45)"/><path d="M915.67,123.87a20.41,20.41,0,0,1,14.52,6l397.63,397.63a20.56,20.56,0,0,1,0,29.05L930.19,954.2a20.53,20.53,0,0,1-29.05,0L503.51,556.57a20.56,20.56,0,0,1,0-29.05L901.14,129.89a20.42,20.42,0,0,1,14.53-6m0-24a44.41,44.41,0,0,0-31.5,13L486.54,510.55a44.55,44.55,0,0,0,0,63L884.17,971.17a44.53,44.53,0,0,0,63,0l397.63-397.63a44.53,44.53,0,0,0,0-63L947.16,112.92a44.37,44.37,0,0,0-31.49-13Z" transform="translate(-414.96 -41.02)"/><path d="M762.14,436.86V405h19.5v31.24c0,8.85,3.39,12.15,8.85,12.15s8.84-3.3,8.84-12.15V405h19.18v31.82c0,17.36-10.42,27.36-28.19,27.36S762.14,454.22,762.14,436.86Z" transform="translate(-414.96 -41.02)"/><path d="M884.47,405V462.9h-16l-22-26.29V462.9h-19V405h16l22,26.28V405Z" transform="translate(-414.96 -41.02)"/><path d="M893.9,405h28.52c19.34,0,32.65,11,32.65,28.93s-13.31,28.93-32.65,28.93H893.9Zm27.69,42.65c8.18,0,13.8-4.88,13.8-13.72s-5.62-13.72-13.8-13.72h-8.18v27.44Z" transform="translate(-414.96 -41.02)"/><path d="M1010.29,448.19V462.9H962.18V405h47v14.71H981.36v6.78h24.46v14.05H981.36v7.61Z" transform="translate(-414.96 -41.02)"/><path d="M1042.61,448.35h-5.29V462.9h-19.51V405h27.86c16.12,0,26.37,8.43,26.37,21.82,0,8.35-4,14.63-10.92,18.18l12.15,17.86h-20.82Zm1.82-28.27h-7.11v13.56h7.11c5.37,0,7.93-2.56,7.93-6.78S1049.8,420.08,1044.43,420.08Z" transform="translate(-414.96 -41.02)"/><path d="M563,533.17c0-17.78,13.64-30.26,32.24-30.26,11.32,0,20.25,4.14,26,11.57l-12.31,11c-3.39-4.3-7.44-6.78-12.65-6.78-8.1,0-13.56,5.62-13.56,14.47s5.46,14.46,13.56,14.46c5.21,0,9.26-2.48,12.65-6.78l12.31,11c-5.7,7.43-14.63,11.57-26,11.57C576.64,563.42,563,550.94,563,533.17Z" transform="translate(-414.96 -41.02)"/><path d="M623.26,533.17c0-17.53,13.81-30.26,32.65-30.26s32.65,12.73,32.65,30.26-13.8,30.25-32.65,30.25S623.26,550.69,623.26,533.17Zm45.63,0c0-9-5.79-14.47-13-14.47s-13,5.46-13,14.47,5.78,14.46,13,14.46S668.89,542.17,668.89,533.17Z" transform="translate(-414.96 -41.02)"/><path d="M752.71,504.23v57.86h-16l-22-26.28v26.28h-19V504.23h16l22,26.29V504.23Z" transform="translate(-414.96 -41.02)"/><path d="M758.5,557.47l6.28-14.22a39.75,39.75,0,0,0,19.09,5.29c5.54,0,7.53-1.16,7.53-3.14,0-7.28-32-1.41-32-23,0-10.75,9-19.51,26.94-19.51,7.77,0,15.79,1.66,21.83,5l-5.87,14.14a35.77,35.77,0,0,0-16.12-4.3c-5.7,0-7.52,1.65-7.52,3.64,0,6.94,32,1.15,32,22.48,0,10.58-9,19.51-26.95,19.51C774,563.42,764.28,561,758.5,557.47Z" transform="translate(-414.96 -41.02)"/><path d="M828.18,519.36H811.24V504.23h53.4v15.13H847.69v42.73H828.18Z" transform="translate(-414.96 -41.02)"/><path d="M894.48,547.55h-5.29v14.54H869.68V504.23h27.86c16.11,0,26.36,8.44,26.36,21.83,0,8.34-4,14.63-10.91,18.18l12.15,17.85H904.31Zm1.82-28.27h-7.11v13.55h7.11c5.37,0,7.93-2.56,7.93-6.77S901.67,519.28,896.3,519.28Z" transform="translate(-414.96 -41.02)"/><path d="M930.77,536.06V504.23h19.51v31.25c0,8.84,3.38,12.15,8.84,12.15s8.84-3.31,8.84-12.15V504.23h19.18v31.83c0,17.36-10.41,27.36-28.19,27.36S930.77,553.42,930.77,536.06Z" transform="translate(-414.96 -41.02)"/><path d="M993.76,533.17c0-17.78,13.64-30.26,32.23-30.26,11.33,0,20.26,4.14,26,11.57l-12.32,11c-3.39-4.3-7.44-6.78-12.64-6.78-8.1,0-13.56,5.62-13.56,14.47s5.46,14.46,13.56,14.46c5.2,0,9.25-2.48,12.64-6.78l12.32,11c-5.7,7.43-14.63,11.57-26,11.57C1007.4,563.42,993.76,550.94,993.76,533.17Z" transform="translate(-414.96 -41.02)"/><path d="M1069.72,519.36h-16.94V504.23h53.4v15.13h-17v42.73h-19.51Z" transform="translate(-414.96 -41.02)"/><path d="M1111.22,504.23h19.51v57.86h-19.51Z" transform="translate(-414.96 -41.02)"/><path d="M1137.84,533.17c0-17.53,13.8-30.26,32.65-30.26s32.65,12.73,32.65,30.26-13.81,30.25-32.65,30.25S1137.84,550.69,1137.84,533.17Zm45.63,0c0-9-5.79-14.47-13-14.47s-13,5.46-13,14.47,5.79,14.46,13,14.46S1183.47,542.17,1183.47,533.17Z" transform="translate(-414.96 -41.02)"/><path d="M1267.29,504.23v57.86h-16l-22-26.28v26.28h-19V504.23h16l22,26.29V504.23Z" transform="translate(-414.96 -41.02)"/><line class="b" x1="208.04" y1="564.98" x2="808.04" y2="564.98"/><line class="b" x1="281.04" y1="642.98" x2="291.04" y2="642.98"/><line class="c" x1="311.51" y1="642.98" x2="710.8" y2="642.98"/><line class="b" x1="721.04" y1="642.98" x2="731.04" y2="642.98"/></svg>